<svg xmlns:xlink="http://www.w3.org/1999/xlink" width="3.394ex" height="2.843ex" style="font-size: 15px; vertical-align: -0.838ex;" viewBox="0 -863.1 1461.5 1223.9" role="img" focusable="false" xmlns="http://www.w3.org/2000/svg">
<defs>
<path stroke-width="1" id="E1-MJMAIN-230A" d="M174 734Q174 735 175 737T177 740T180 744T184 747T189 749T196 750Q206 748 214 735V-210H310H373Q401 -210 411 -213T422 -230T411 -247T369 -251Q362 -251 338 -251T298 -250H190Q178 -246 174 -234V734Z"></path>
<path stroke-width="1" id="E1-MJMATHI-78" d="M52 289Q59 331 106 386T222 442Q257 442 286 424T329 379Q371 442 430 442Q467 442 494 420T522 361Q522 332 508 314T481 292T458 288Q439 288 427 299T415 328Q415 374 465 391Q454 404 425 404Q412 404 406 402Q368 386 350 336Q290 115 290 78Q290 50 306 38T341 26Q378 26 414 59T463 140Q466 150 469 151T485 153H489Q504 153 504 145Q504 144 502 134Q486 77 440 33T333 -11Q263 -11 227 52Q186 -10 133 -10H127Q78 -10 57 16T35 71Q35 103 54 123T99 143Q142 143 142 101Q142 81 130 66T107 46T94 41L91 40Q91 39 97 36T113 29T132 26Q168 26 194 71Q203 87 217 139T245 247T261 313Q266 340 266 352Q266 380 251 392T217 404Q177 404 142 372T93 290Q91 281 88 280T72 278H58Q52 284 52 289Z"></path>
<path stroke-width="1" id="E1-MJMAIN-230B" d="M229 734Q229 735 230 737T232 740T235 744T239 747T244 749T251 750Q262 748 269 735V-235Q266 -240 256 -249L147 -250H77Q43 -250 32 -247T21 -230T32 -213T72 -209Q79 -209 99 -209T133 -210H229V734Z"></path>
</defs>
<g stroke="currentColor" fill="currentColor" stroke-width="0" transform="matrix(1 0 0 -1 0 0)">
 <use xlink:href="#E1-MJMAIN-230A" x="0" y="0"></use>
 <use xlink:href="#E1-MJMATHI-78" x="444" y="0"></use>
 <use xlink:href="#E1-MJMAIN-230B" x="1017" y="0"></use>
</g>
</svg>